<svg width="34" height="34" viewBox="0 0 34 34" fill="none" xmlns="http://www.w3.org/2000/svg">
<path d="M17 2.125C18.409 2.125 19.7602 2.68471 20.7565 3.681C21.7528 4.67728 22.3125 6.02854 22.3125 7.4375V8.5H11.6875V7.4375C11.6875 6.02854 12.2472 4.67728 13.2435 3.681C14.2398 2.68471 15.591 2.125 17 2.125ZM24.4375 8.5V7.4375C24.4375 5.46495 23.6539 3.57319 22.2591 2.17839C20.8643 0.783591 18.9725 0 17 0C15.0275 0 13.1357 0.783591 11.7409 2.17839C10.3461 3.57319 9.5625 5.46495 9.5625 7.4375V8.5H2.125V29.75C2.125 30.8772 2.57277 31.9582 3.3698 32.7552C4.16683 33.5522 5.24783 34 6.375 34H27.625C28.7522 34 29.8332 33.5522 30.6302 32.7552C31.4272 31.9582 31.875 30.8772 31.875 29.75V8.5H24.4375ZM4.25 10.625H29.75V29.75C29.75 30.3136 29.5261 30.8541 29.1276 31.2526C28.7291 31.6511 28.1886 31.875 27.625 31.875H6.375C5.81141 31.875 5.27091 31.6511 4.8724 31.2526C4.47388 30.8541 4.25 30.3136 4.25 29.75V10.625Z" fill="black"/>
</svg>
